<svg width="64" height="64" viewBox="0 0 64 64" fill="none" xmlns="http://www.w3.org/2000/svg">
<g filter="url(#filter0_d_1_11)">
<path d="M54 27C54 14.8497 44.1503 5 32 5C19.8497 5 10 14.8497 10 27C10 39.1503 19.8497 49 32 49C44.1503 49 54 39.1503 54 27Z" fill="white"/>
</g>
<path d="M29.71 27.001L35.172 21.054C35.3958 20.8277 35.5212 20.5223 35.5212 20.204C35.5212 19.8857 35.3958 19.5803 35.172 19.354C35.0619 19.2423 34.9308 19.1537 34.7861 19.0932C34.6415 19.0326 34.4863 19.0015 34.3295 19.0015C34.1727 19.0015 34.0175 19.0326 33.8729 19.0932C33.7282 19.1537 33.5971 19.2423 33.487 19.354L26.827 26.154C26.604 26.3807 26.479 26.686 26.479 27.004C26.479 27.322 26.604 27.6273 26.827 27.854L33.487 34.654C33.5971 34.7657 33.7282 34.8543 33.8729 34.9148C34.0175 34.9754 34.1727 35.0065 34.3295 35.0065C34.4863 35.0065 34.6415 34.9754 34.7861 34.9148C34.9308 34.8543 35.0619 34.7657 35.172 34.654C35.3958 34.4277 35.5212 34.1222 35.5212 33.804C35.5212 33.4857 35.3958 33.1803 35.172 32.954L29.71 27.001Z" fill="black"/>
<defs>
<filter id="filter0_d_1_11" x="0" y="0" width="64" height="64" filterUnits="userSpaceOnUse" color-interpolation-filters="sRGB">
<feFlood flood-opacity="0" result="BackgroundImageFix"/>
<feColorMatrix in="SourceAlpha" type="matrix" values="0 0 0 0 0 0 0 0 0 0 0 0 0 0 0 0 0 0 127 0" result="hardAlpha"/>
<feOffset dy="5"/>
<feGaussianBlur stdDeviation="5"/>
<feColorMatrix type="matrix" values="0 0 0 0 0 0 0 0 0 0 0 0 0 0 0 0 0 0 0.102 0"/>
<feBlend mode="normal" in2="BackgroundImageFix" result="effect1_dropShadow_1_11"/>
<feBlend mode="normal" in="SourceGraphic" in2="effect1_dropShadow_1_11" result="shape"/>
</filter>
</defs>
</svg>
