<svg width="12" height="14" viewBox="0 0 12 14" fill="none" xmlns="http://www.w3.org/2000/svg">
<path d="M5.95 13.862C5.406 13.862 2.823 10.668 2.19 9.641C1.24262 8.43203 0.710917 6.94949 0.673996 5.414C0.673996 4.01458 1.22991 2.67248 2.21945 1.68295C3.20898 0.693412 4.55108 0.137497 5.9505 0.137497C7.34991 0.137497 8.69201 0.693412 9.68155 1.68295C10.6711 2.67248 11.227 4.01458 11.227 5.414C11.227 7.106 10.663 8.02 9.727 9.535L9.664 9.638C9.012 10.697 6.483 13.862 5.95 13.862ZM5.95 2.777C5.42821 2.777 4.91814 2.93174 4.4843 3.22165C4.05046 3.51156 3.71234 3.92362 3.51271 4.40571C3.31307 4.8878 3.26089 5.41826 3.36276 5.93001C3.46463 6.44176 3.71597 6.91181 4.085 7.2807C4.45403 7.64959 4.92417 7.90076 5.43596 8.00243C5.94775 8.10411 6.47819 8.05172 6.96021 7.8519C7.44222 7.65209 7.85415 7.31381 8.1439 6.87986C8.43365 6.44592 8.58819 5.93579 8.588 5.414C8.5872 4.7146 8.30902 4.04408 7.81447 3.54953C7.31992 3.05498 6.64939 2.77679 5.95 2.776V2.777Z" fill="#F52D56"/>
</svg>
