<svg width="9" height="6" viewBox="0 0 9 6" fill="none" xmlns="http://www.w3.org/2000/svg">
<path d="M4.422 3.73497L7.71 0.714973C7.83508 0.591129 8.00398 0.521657 8.18 0.521657C8.35602 0.521657 8.52492 0.591129 8.65 0.714973C8.7118 0.775828 8.76088 0.848369 8.79438 0.928371C8.82788 1.00837 8.84513 1.09424 8.84513 1.18097C8.84513 1.26771 8.82788 1.35357 8.79438 1.43358C8.76088 1.51358 8.7118 1.58612 8.65 1.64697L4.893 5.32897C4.76762 5.45264 4.5986 5.52197 4.4225 5.52197C4.2464 5.52197 4.07737 5.45264 3.952 5.32897L0.199999 1.64697C0.138199 1.58612 0.0891198 1.51358 0.0556198 1.43358C0.0221197 1.35357 0.00486755 1.26771 0.00486755 1.18097C0.00486755 1.09424 0.0221197 1.00837 0.0556198 0.928371C0.0891198 0.848369 0.138199 0.775828 0.199999 0.714973C0.325078 0.591129 0.493982 0.521657 0.669999 0.521657C0.846017 0.521657 1.01492 0.591129 1.14 0.714973L4.422 3.73497Z" fill="black"/>
</svg>
