<svg width="17" height="17" viewBox="0 0 17 17" fill="none" xmlns="http://www.w3.org/2000/svg">
<path d="M16.951 7.035C16.8966 6.85253 16.792 6.68903 16.6491 6.56314C16.5062 6.43725 16.3309 6.35404 16.143 6.323L11.828 5.668L9.90001 1.584C9.82324 1.40925 9.69726 1.26062 9.53744 1.15626C9.37762 1.05191 9.19088 0.996338 9.00001 0.996338C8.80913 0.996338 8.62239 1.05191 8.46257 1.15626C8.30275 1.26062 8.17677 1.40925 8.10001 1.584L6.17201 5.668L1.85701 6.323C1.66905 6.35382 1.49357 6.43695 1.35067 6.56287C1.20777 6.68879 1.10322 6.85242 1.04901 7.035C0.990539 7.21974 0.982996 7.41683 1.02717 7.6055C1.07135 7.79417 1.1656 7.96742 1.30001 8.107L4.42301 11.287L3.68601 15.777C3.65388 15.9678 3.67412 16.1637 3.74457 16.3438C3.81501 16.524 3.93301 16.6816 4.08601 16.8C4.23476 16.9143 4.41365 16.9827 4.60071 16.9967C4.78778 17.0107 4.97487 16.9698 5.13901 16.879L9.00001 14.76L12.86 16.88C13.0243 16.9708 13.2116 17.0117 13.3988 16.9976C13.586 16.9836 13.765 16.9153 13.914 16.801C14.067 16.6826 14.185 16.525 14.2554 16.3448C14.3259 16.1647 14.3461 15.9688 14.314 15.778L13.577 11.288L16.7 8.107C16.834 7.96719 16.9281 7.79394 16.9722 7.60535C17.0164 7.41677 17.009 7.21979 16.951 7.035Z" fill="#FFCC00"/>
</svg>
